<?xml version="1.0" encoding="utf-8"?>
<svg version="1.1" xmlns:xlink="http://www.w3.org/1999/xlink" width="17px" height="20px" xmlns="http://www.w3.org/2000/svg">
  <g transform="matrix(1 0 0 1 -22 -11 )">
    <path d="M 1.540625 0  L 15.459375 0  C 15.6630208333333 0  15.8578125 0.0396563119629878  16.04375 0.118968935888963  C 16.3359375 0.233531614893145  16.568359375 0.414188147168979  16.741015625 0.660938532716457  C 16.913671875 0.907688918263934  17 1.18087684512007  17 1.48050231328486  L 17 18.5194976867151  C 17 18.8191231548799  16.913671875 19.0923110817361  16.741015625 19.3390614672835  C 16.568359375 19.585811852831  16.3359375 19.7664683851069  16.04375 19.881031064111  C 15.8755208333333 19.9515311742675  15.6807291666667 19.9867812293457  15.459375 19.9867812293457  C 15.034375 19.9867812293457  14.6669270833333 19.8457810090328  14.35703125 19.5637805684071  L 8.5 13.9590218109716  L 2.64296875 19.5637805684071  C 2.32421875 19.8545935228024  1.95677083333333 20  1.540625 20  C 1.33697916666667 20  1.1421875 19.960343688037  0.95625 19.881031064111  C 0.6640625 19.7664683851069  0.431640625 19.585811852831  0.258984375 19.3390614672835  C 0.086328125 19.0923110817361  0 18.8191231548799  0 18.5194976867151  L 0 1.48050231328486  C 0 1.18087684512007  0.086328125 0.907688918263934  0.258984375 0.660938532716457  C 0.431640625 0.414188147168979  0.6640625 0.233531614893145  0.95625 0.118968935888963  C 1.1421875 0.0396563119629878  1.33697916666667 0  1.540625 0  Z " fill-rule="nonzero" fill="#81d3f8" stroke="none" transform="matrix(1 0 0 1 22 11 )" />
  </g>
</svg>