<?xml version="1.0" encoding="utf-8"?>
<svg version="1.1" xmlns:xlink="http://www.w3.org/1999/xlink" width="25px" height="20px" xmlns="http://www.w3.org/2000/svg">
  <g transform="matrix(1 0 0 1 -20 -12 )">
    <path d="M 17.5920758928571 8.89202540578687  C 17.768787202381 8.71324394260174  17.8571428571429 8.50152905198777  17.8571428571429 8.25688073394495  C 17.8571428571429 8.01223241590214  17.768787202381 7.80051752528817  17.5920758928571 7.62173606210304  C 17.4153645833333 7.4429545989179  17.2061011904762 7.35356386732533  16.9642857142857 7.35356386732533  C 15.3645833333333 7.35356386732533  13.8857886904762 7.58645024700071  12.5279017857143 8.05222300635145  C 11.1700148809524 8.51799576570219  9.96326264880953 9.14843566219713  8.90764508928571 9.94354269583627  C 7.85202752976191 10.7386497294754  6.75688244047619 11.7713479181369  5.62220982142857 13.0416372618207  C 5.44549851190476 13.2392378263938  5.35714285714286 13.4509527170078  5.35714285714286 13.6767819336627  C 5.35714285714286 13.9214302517055  5.44549851190476 14.1331451423195  5.62220982142857 14.3119266055046  C 5.79892113095238 14.4907080686897  6.00818452380952 14.5800988002823  6.25 14.5800988002823  C 6.47321428571429 14.5800988002823  6.68247767857143 14.4907080686897  6.87779017857143 14.3119266055046  C 7.12890625 14.0860973888497  7.47302827380952 13.7520583392143  7.91015625 13.3098094565984  C 8.34728422619048 12.8675605739826  8.65885416666667 12.5570454010821  8.84486607142857 12.378263937897  C 10.1190476190476 11.2114796518466  11.3676525297619 10.3834391907786  12.5906808035714 9.89414255469301  C 13.813709077381 9.40484591860739  15.2715773809524 9.16019760056457  16.9642857142857 9.16019760056457  C 17.2061011904762 9.16019760056457  17.4153645833333 9.07080686897201  17.5920758928571 8.89202540578687  Z M 24.8883928571429 4.10726887791108  C 24.9627976190476 4.65302281816043  25 5.10468125147024  25 5.46224417784051  C 25 6.35615149376617  24.9069940476191 7.26417313573277  24.7209821428571 8.1863091037403  C 24.2931547619048 10.2940484591861  23.4351748511905 12.0959774170783  22.1470424107143 13.5920959774171  C 20.8589099702381 15.0882145377558  19.1964285714286 16.3490943307457  17.1595982142857 17.3747353563867  C 15.1692708333333 18.3909668313338  13.1324404761905 18.8990825688073  11.0491071428571 18.8990825688073  C 9.67261904761905 18.8990825688073  8.34263392857143 18.6779581274994  7.05915178571429 18.2357092448836  C 6.91964285714286 18.1886614914138  6.51041666666667 17.9910609268407  5.83147321428571 17.6429075511644  C 5.15252976190476 17.2947541754881  4.70610119047619 17.12067748765  4.4921875 17.12067748765  C 4.34337797619048 17.12067748765  4.15969122023809 17.2712302987532  3.94112723214286 17.5723359209598  C 3.72256324404762 17.8734415431663  3.51329985119048 18.2027758174547  3.31333705357143 18.560338743825  C 3.11337425595238 18.9179016701952  2.86923363095238 19.2472359444837  2.58091517857143 19.5483415666902  C 2.29259672619048 19.8494471888967  2.01357886904762 20  1.74386160714286 20  C 1.34393601190476 20  1.04864211309524 19.9176664314279  0.857979910714286 19.7529992942837  C 0.667317708333333 19.5883321571395  0.455729166666667 19.3083980239944  0.223214285714286 18.9131968948483  C 0.204613095238095 18.8755586920725  0.17671130952381 18.8238061632557  0.139508928571429 18.757939308398  C 0.102306547619048 18.6920724535403  0.0767299107142857 18.6450247000706  0.0627790178571429 18.6167960479887  C 0.048828125 18.5885673959068  0.0348772321428571 18.5438720301106  0.0209263392857143 18.4827099505999  C 0.00697544642857143 18.4215478710892  0 18.358033403905  0 18.2921665490473  C 0 17.9628322747589  0.144159226190476 17.6170312867561  0.432477678571429 17.2547635850388  C 0.720796130952381 16.8924958833216  1.03701636904762 16.5843330980946  1.38113839285714 16.3302752293578  C 1.72526041666667 16.076217360621  2.0414806547619 15.8127499411903  2.32979910714286 15.5398729710656  C 2.61811755952381 15.266996000941  2.76227678571429 15.041166784286  2.76227678571429 14.8623853211009  C 2.76227678571429 14.8247471183251  2.69717261904762 14.64596565514  2.56696428571429 14.3260409315455  C 2.43675595238095 14.0061162079511  2.36235119047619 13.7991060926841  2.34375 13.7050105857445  C 2.26004464285714 13.2251235003529  2.21819196428571 12.7358268642672  2.21819196428571 12.2371206774876  C 2.21819196428571 11.1550223476829  2.42047991071429 10.1199717713479  2.82505580357143 9.13196894848271  C 3.22963169642857 8.1439661256175  3.78301711309524 7.27593507410021  4.48521205357143 6.52787579393084  C 5.18740699404762 5.77981651376147  5.98028273809524 5.12585274053164  6.86383928571429 4.56598447424136  C 7.74739583333333 4.00611620795107  8.69605654761905 3.55681016231475  9.70982142857143 3.21806633733239  C 10.2213541666667 3.04869442484121  10.8956473214286 2.9287226534933  11.7327008928571 2.85815102328864  C 12.5697544642857 2.78757939308398  13.4044828869048 2.74523641496119  14.2368861607143 2.73112208892025  C 15.0692894345238 2.71700776287932  15.8993675595238 2.68877911079746  16.7271205357143 2.64643613267467  C 17.5548735119048 2.60409315455187  18.3151971726191 2.49117854622442  19.0080915178571 2.30769230769231  C 19.7009858630952 2.1242060691602  20.2287946428571 1.85838626205598  20.5915178571429 1.51023288637967  L 21.0030691964286 1.0938602681722  C 21.0030691964286 1.0938602681722  21.1402529761905 0.962126558456831  21.4146205357143 0.698659139026112  C 21.6889880952381 0.435191719595389  21.8145461309524 0.341096212655843  21.7912946428571 0.416372618207481  C 21.7680431547619 0.491649023759115  21.9377790178571 0.416372618207481  22.3005022321429 0.190543401552576  C 22.6632254464286 -0.0352858151023305  22.8655133928571 -0.0564573041637262  22.9073660714286 0.127028934368383  C 23.2700892857143 0.127028934368383  23.5979352678571 0.343448600329332  23.8909040178571 0.776287932251234  C 24.1838727678571 1.20912726417313  24.4047619047619 1.73606210303458  24.5535714285714 2.35709244883557  C 24.702380952381 2.97812279463656  24.8139880952381 3.56151493766173  24.8883928571429 4.10726887791108  Z " fill-rule="nonzero" fill="#caf982" stroke="none" transform="matrix(1 0 0 1 20 12 )" />
  </g>
</svg>