<?xml version="1.0" encoding="utf-8"?>
<svg version="1.1" xmlns:xlink="http://www.w3.org/1999/xlink" width="14px" height="16px" xmlns="http://www.w3.org/2000/svg">
  <g transform="matrix(1 0 0 1 -26 -153 )">
    <path d="M 0.291666666666667 14  L 13.7083333333333 14  C 13.7934027777778 14.2857142857143  13.86328125 14.3125  13.91796875 14.3660714285714  C 13.97265625 14.4196428571429  14 14.4880952380952  14 14.5714285714286  L 14 15.7142857142857  C 14 15.797619047619  13.97265625 15.8660714285714  13.91796875 15.9196428571429  C 13.86328125 15.9732142857143  13.7934027777778 16  13.7083333333333 16  L 0.291666666666667 16  C 0.206597222222222 16  0.13671875 15.9732142857143  0.08203125 15.9196428571429  C 0.02734375 15.8660714285714  0 15.797619047619  0 15.7142857142857  L 0 14.5714285714286  C 0 14.4880952380952  0.02734375 14.4196428571429  0.08203125 14.3660714285714  C 0.13671875 14.3125  0.206597222222222 14.2857142857143  0.291666666666667 14  Z M 12.8151041666667 13.7142857142857  L 1.18489583333333 13.7142857142857  C 1.203125 13.3869047619048  1.25173611111111 13.0684523809524  1.33072916666667 12.7589285714286  C 1.40972222222222 12.4494047619048  1.50086805555556 12.1666666666667  1.60416666666667 11.9107142857143  C 1.70746527777778 11.6547619047619  1.84722222222222 11.3958333333333  2.0234375 11.1339285714286  C 2.19965277777778 10.8720238095238  2.36219618055556 10.6458333333333  2.51106770833333 10.4553571428571  C 2.65993923611111 10.264880952381  2.85590277777778 10.0580357142857  3.09895833333333 9.83482142857143  C 3.34201388888889 9.61160714285714  3.54253472222222 9.43303571428572  3.70052083333333 9.29910714285714  C 3.85850694444444 9.16517857142857  4.07269965277778 9.00148809523809  4.34309895833333 8.80803571428572  C 4.61349826388889 8.61458333333333  4.81553819444444 8.47321428571428  4.94921875 8.38392857142857  C 5.08289930555556 8.29464285714286  5.28038194444444 8.16666666666667  5.54166666666667 8  C 5.28038194444444 7.83333333333333  5.08289930555556 7.70535714285714  4.94921875 7.61607142857143  C 4.81553819444444 7.52678571428571  4.61349826388889 7.38541666666667  4.34309895833333 7.19196428571429  C 4.07269965277778 6.9985119047619  3.85850694444444 6.83482142857143  3.70052083333333 6.70089285714286  C 3.54253472222222 6.56696428571429  3.34201388888889 6.38839285714286  3.09895833333333 6.16517857142857  C 2.85590277777778 5.94196428571429  2.65993923611111 5.73511904761905  2.51106770833333 5.54464285714286  C 2.36219618055556 5.35416666666667  2.19965277777778 5.12797619047619  2.0234375 4.86607142857143  C 1.84722222222222 4.60416666666667  1.70746527777778 4.34523809523809  1.60416666666667 4.08928571428571  C 1.50086805555556 3.83333333333333  1.40972222222222 3.55059523809524  1.33072916666667 3.24107142857143  C 1.25173611111111 2.93154761904762  1.203125 2.61309523809524  1.18489583333333 2.28571428571429  L 12.8151041666667 2.28571428571429  C 12.796875 2.61309523809524  12.7482638888889 2.93154761904762  12.6692708333333 3.24107142857143  C 12.5902777777778 3.55059523809524  12.4991319444444 3.83333333333333  12.3958333333333 4.08928571428571  C 12.2925347222222 4.34523809523809  12.1527777777778 4.60416666666667  11.9765625 4.86607142857143  C 11.8003472222222 5.12797619047619  11.6378038194444 5.35416666666667  11.4889322916667 5.54464285714286  C 11.3400607638889 5.73511904761905  11.1440972222222 5.94196428571429  10.9010416666667 6.16517857142857  C 10.6579861111111 6.38839285714286  10.4574652777778 6.56696428571429  10.2994791666667 6.70089285714286  C 10.1414930555556 6.83482142857143  9.92730034722222 6.9985119047619  9.65690104166667 7.19196428571429  C 9.38650173611111 7.38541666666667  9.18446180555556 7.52678571428571  9.05078125 7.61607142857143  C 8.91710069444444 7.70535714285714  8.71961805555556 7.83333333333333  8.45833333333333 8  C 8.71961805555556 8.16666666666667  8.91710069444444 8.29464285714286  9.05078125 8.38392857142857  C 9.18446180555556 8.47321428571428  9.38650173611111 8.61458333333333  9.65690104166667 8.80803571428572  C 9.92730034722222 9.00148809523809  10.1414930555556 9.16517857142857  10.2994791666667 9.29910714285714  C 10.4574652777778 9.43303571428572  10.6579861111111 9.61160714285714  10.9010416666667 9.83482142857143  C 11.1440972222222 10.0580357142857  11.3400607638889 10.264880952381  11.4889322916667 10.4553571428571  C 11.6378038194444 10.6458333333333  11.8003472222222 10.8720238095238  11.9765625 11.1339285714286  C 12.1527777777778 11.3958333333333  12.2925347222222 11.6547619047619  12.3958333333333 11.9107142857143  C 12.4991319444444 12.1666666666667  12.5902777777778 12.4494047619048  12.6692708333333 12.7589285714286  C 12.7482638888889 13.0684523809524  12.796875 13.3869047619048  12.8151041666667 13.7142857142857  Z M 0.291666666666667 0  L 13.7083333333333 0  C 13.7934027777778 0  13.86328125 0.0267857142857135  13.91796875 0.0803571428571424  C 13.97265625 0.133928571428571  14 0.202380952380951  14 0.285714285714286  L 14 1.42857142857143  C 14 1.51190476190476  13.97265625 1.58035714285714  13.91796875 1.63392857142857  C 13.86328125 1.6875  13.7934027777778 1.71428571428571  13.7083333333333 2  L 0.291666666666667 2  C 0.206597222222222 1.71428571428571  0.13671875 1.6875  0.08203125 1.63392857142857  C 0.02734375 1.58035714285714  0 1.51190476190476  0 1.42857142857143  L 0 0.285714285714286  C 0 0.202380952380951  0.02734375 0.133928571428571  0.08203125 0.0803571428571424  C 0.13671875 0.0267857142857135  0.206597222222222 0  0.291666666666667 0  Z " fill-rule="nonzero" fill="#3877c5" stroke="none" transform="matrix(1 0 0 1 26 153 )" />
  </g>
</svg>